<?xml version="1.0" encoding="UTF-8" standalone="no"?>
<!-- Created with Inkscape (http://www.inkscape.org/) -->

<svg
   version="1.1"
   id="svg2"
   width="104.13333"
   height="106.38667"
   viewBox="0 0 104.13333 106.38667"
   sodipodi:docname="AAU_UK_CIRCLE_white_cmyk.eps"
   xmlns:inkscape="http://www.inkscape.org/namespaces/inkscape"
   xmlns:sodipodi="http://sodipodi.sourceforge.net/DTD/sodipodi-0.dtd"
   xmlns="http://www.w3.org/2000/svg"
   xmlns:svg="http://www.w3.org/2000/svg">
  <defs
     id="defs6" />
  <sodipodi:namedview
     id="namedview4"
     pagecolor="#ffffff"
     bordercolor="#000000"
     borderopacity="0.25"
     inkscape:showpageshadow="2"
     inkscape:pageopacity="0.0"
     inkscape:pagecheckerboard="0"
     inkscape:deskcolor="#d1d1d1" />
  <g
     id="g8"
     inkscape:groupmode="layer"
     inkscape:label="ink_ext_XXXXXX"
     transform="matrix(1.3333333,0,0,-1.3333333,0,106.38667)">
    <g
       id="g10"
       transform="scale(0.1)">
      <path
         d="m 40.8945,272.688 11.5039,8.699 -0.0781,0.215 -14.4922,0.078 z m 21.3477,19.265 c 0.4101,-0.008 0.75,-0.195 0.918,-0.672 l 3.7773,-11.105 c 0.168,-0.477 0.0117,-0.828 -0.3125,-1.094 L 31.5977,249.699 c -0.3125,-0.265 -0.6368,-0.136 -0.7735,0.274 l -3.8281,11.226 c -0.1641,0.481 -0.0078,0.832 0.3125,1.106 l 5.6758,4.355 -5.1367,15.051 -7.1602,-0.012 c -0.4102,0.02 -0.75,0.196 -0.9062,0.672 l -3.8086,11.184 c -0.1485,0.41 0.0273,0.683 0.4492,0.664 l 45.8203,-2.266"
         style="fill:#ffffff;fill-opacity:1;fill-rule:nonzero;stroke:none"
         id="path12" />
      <path
         d="m 67.2422,214.336 9.8828,10.527 -0.0977,0.188 -14.2968,-2.363 z m 17.8203,22.609 c 0.4102,0.059 0.7813,-0.07 1.0156,-0.507 l 5.5664,-10.305 c 0.2461,-0.449 0.1563,-0.82 -0.1172,-1.133 L 61.9102,190.098 c -0.2735,-0.313 -0.6055,-0.254 -0.8125,0.136 l -5.6329,10.43 c -0.246,0.441 -0.1562,0.82 0.1172,1.133 l 4.8711,5.254 -7.5468,13.976 -7.0508,-1.222 c -0.4219,-0.059 -0.7813,0.078 -1.0157,0.519 l -5.6054,10.36 c -0.2071,0.39 -0.0781,0.703 0.332,0.761 l 45.4961,5.5"
         style="fill:#ffffff;fill-opacity:1;fill-rule:nonzero;stroke:none"
         id="path14" />
      <path
         d="m 108.734,197.148 c 0.313,0.235 0.696,0.157 0.95,-0.175 l 6.796,-8.926 c 0.254,-0.332 0.223,-0.723 -0.078,-0.957 L 90.2891,167.18 c -0.2149,-0.168 -0.2266,-0.356 -0.0508,-0.578 l 12.5387,-16.465 c 0.266,-0.352 0.227,-0.742 -0.078,-0.977 l -6.992,-5.32 c -0.3125,-0.235 -0.6914,-0.168 -0.9453,0.183 l -20.039,26.301 c -0.2539,0.34 -0.2266,0.731 0.0859,0.965 l 33.9254,25.859"
         style="fill:#ffffff;fill-opacity:1;fill-rule:nonzero;stroke:none"
         id="path16" />
      <path
         d="m 142.289,132.129 c 2.734,-2.637 5.215,-2.977 7.324,-0.801 2.168,2.227 1.758,4.61 -1.023,7.305 l -3.672,3.555 c -0.207,0.195 -0.402,0.207 -0.578,0.019 l -5.762,-5.945 c -0.183,-0.188 -0.164,-0.383 0.039,-0.578 z m -16.004,-9.16 4.129,-3.992 c 2.844,-2.754 5.508,-2.903 7.754,-0.586 2.121,2.183 1.973,4.937 -0.867,7.683 l -4.133,3.985 c -0.203,0.214 -0.398,0.214 -0.574,0.019 l -6.348,-6.531 c -0.187,-0.188 -0.168,-0.371 0.039,-0.578 z m 14.766,34.023 c 0.273,0.274 0.652,0.254 0.965,-0.039 l 14.308,-13.848 c 7.86,-7.597 8.192,-14.484 3.321,-19.5 -3.145,-3.242 -7.004,-3.925 -10.852,-2.628 l -0.086,-0.086 c 1.719,-3.379 1.473,-8.282 -2.082,-11.953 -5.984,-6.165 -13.672,-4.387 -21.062,2.753 l -14.141,13.7 c -0.313,0.293 -0.344,0.683 -0.07,0.968 l 29.699,30.633"
         style="fill:#ffffff;fill-opacity:1;fill-rule:nonzero;stroke:none"
         id="path18" />
      <path
         d="m 185.238,80.332 c 1.34,0.8907 2.61,2.4336 5.625,6.7071 3.02,4.2812 4.055,6.0078 4.446,7.5625 0.711,2.4882 -0.293,4.9375 -2.883,6.7574 -2.586,1.805 -5.235,1.93 -7.344,0.426 -1.328,-0.894 -2.605,-2.4491 -5.625,-6.7147 -3.016,-4.2969 -4.051,-6.0078 -4.441,-7.5508 -0.703,-2.5078 0.293,-4.9492 2.879,-6.7656 2.589,-1.8164 5.226,-1.9336 7.343,-0.4219 z m -21.961,11.4766 c 0.996,3.4062 2.254,5.6914 5.723,10.6014 3.465,4.914 5.184,6.86 8.066,8.949 6.25,4.375 14.161,3.243 21.211,-1.718 7.059,-4.953 10.789,-12.0043 8.77,-19.348 -0.938,-3.4453 -2.258,-5.6914 -5.723,-10.5938 -3.457,-4.9219 -5.129,-6.9062 -8.066,-8.9453 -6.25,-4.375 -14.16,-3.2422 -21.211,1.707 -7.051,4.9493 -10.793,12.0039 -8.77,19.3477"
         style="fill:#ffffff;fill-opacity:1;fill-rule:nonzero;stroke:none"
         id="path20" />
      <path
         d="m 246.207,64.4648 c 1.25,2.5586 0.106,5.1368 -3.117,6.7188 l -6.063,2.9687 c -0.254,0.1172 -0.449,0.0782 -0.558,-0.1601 l -3.739,-7.6719 c -0.117,-0.2344 -0.05,-0.414 0.215,-0.5312 l 6.063,-2.9766 c 3.222,-1.5742 5.949,-0.8984 7.199,1.6523 z M 233.773,37.5117 c -0.574,0.293 -0.691,0.5547 -0.683,1.0547 l -0.067,16.7383 -4.191,2.0508 c -0.254,0.1328 -0.437,0.0781 -0.555,-0.1563 l -6.406,-13.125 c -0.168,-0.3515 -0.539,-0.4609 -0.93,-0.2734 l -10.058,4.9297 c -0.391,0.1836 -0.535,0.5547 -0.371,0.8984 l 18.711,38.3516 c 0.175,0.3476 0.547,0.4492 0.929,0.2617 l 17.871,-8.75 c 10.059,-4.9297 13.223,-13.0274 9.598,-20.4609 -2.41,-4.9375 -6.953,-7.6915 -12.617,-7.5079 l 0.723,-19.0039 c 0.019,-0.4414 -0.34,-0.6953 -0.789,-0.4804 l -11.165,5.4726"
         style="fill:#ffffff;fill-opacity:1;fill-rule:nonzero;stroke:none"
         id="path22" />
      <path
         d="m 273.402,44.4258 c 1.75,5.7617 2.786,8.1445 4.864,11.0351 4.57,6.1133 12.422,7.5 20.734,4.9688 8.582,-2.6055 13.25,-7.9492 14.219,-14.1289 0.066,-0.4883 -0.176,-0.8203 -0.656,-0.8789 l -9.95,-0.6836 c -0.468,-0.0586 -0.851,0.1719 -0.957,0.5547 -0.879,2.7656 -2.402,4.4453 -5.625,5.4297 -3.156,0.9687 -5.625,0.2265 -7.168,-1.875 -1.008,-1.3164 -1.711,-3.1329 -3.242,-8.1329 -1.523,-5.0195 -1.906,-6.9921 -1.855,-8.5585 0.175,-2.6329 1.882,-4.6368 5.242,-5.6641 3.019,-0.918 5.793,-0.4649 7.199,1.4687 0.508,0.6446 0.906,1.4727 1.238,2.5977 0.078,0.2422 -0.019,0.4102 -0.293,0.4883 l -5.086,1.5429 c -0.41,0.1368 -0.605,0.4571 -0.5,0.8282 l 2.141,6.9843 c 0.117,0.3711 0.469,0.5469 0.879,0.4102 l 16.68,-5.0781 c 0.41,-0.1211 0.613,-0.4531 0.496,-0.8242 l -0.985,-3.211 c -1.222,-4.0117 -2.461,-7.0976 -4.218,-9.3945 -4.602,-6.2383 -12.344,-7.9961 -20.852,-5.418 -8.309,2.5391 -14.043,8.0625 -14.422,15.6836 -0.117,3.5508 0.36,6.1133 2.117,11.8555"
         style="fill:#ffffff;fill-opacity:1;fill-rule:nonzero;stroke:none"
         id="path24" />
      <path
         d="m 363.52,18.7891 1.3,26.2812 c 0.02,0.3906 0.313,0.6328 0.75,0.6133 l 11.192,-0.5742 c 0.429,-0.0196 0.703,-0.293 0.683,-0.6836 l -1.328,-26.9922 c -0.215,-4.3867 2.383,-7.0508 6.477,-7.2461 4.238,-0.21484 6.863,2.168 7.09,6.5586 l 1.328,26.9922 c 0.019,0.3828 0.32,0.625 0.75,0.6094 l 11.199,-0.5664 c 0.43,-0.0196 0.699,-0.293 0.684,-0.6836 l -1.29,-26.2891 C 401.77,5.11719 393.715,-0.554688 382.086,0.0390625 370.25,0.644531 362.945,7.10156 363.52,18.7891"
         style="fill:#ffffff;fill-opacity:1;fill-rule:nonzero;stroke:none"
         id="path26" />
      <path
         d="m 422.805,43.6914 c -0.063,0.3828 0.215,0.6719 0.64,0.7149 l 10.493,1.1523 c 0.503,0.0469 1.035,-0.0898 1.289,-0.5078 l 17.363,-23.1758 0.269,0.0313 -2.691,24.7656 c -0.039,0.3789 0.215,0.664 0.645,0.7226 l 10,1.0821 c 0.425,0.0507 0.742,-0.1875 0.781,-0.5664 l 4.644,-42.44926 c 0.039,-0.39063 -0.215,-0.67578 -0.64,-0.72266 L 455.09,3.60547 c -0.512,-0.05859 -1.02,0.07812 -1.289,0.50781 L 436.594,27.2266 436.16,27.1797 438.855,2.48828 c 0.04,-0.38672 -0.21,-0.67969 -0.64,-0.71875 l -10,-1.093749 c -0.434,-0.039062 -0.742,0.175782 -0.781,0.562499 l -4.629,42.45312"
         style="fill:#ffffff;fill-opacity:1;fill-rule:nonzero;stroke:none"
         id="path28" />
      <path
         d="m 481.199,52.2578 c -0.094,0.3711 0.117,0.7031 0.547,0.8008 l 10.899,2.6172 c 0.414,0.1055 0.761,-0.0781 0.839,-0.4492 l 10.039,-41.5274 c 0.098,-0.3867 -0.117,-0.7031 -0.527,-0.7969 l -10.918,-2.6367 c -0.406,-0.1015 -0.738,0.086 -0.84,0.4688 l -10.039,41.5234"
         style="fill:#ffffff;fill-opacity:1;fill-rule:nonzero;stroke:none"
         id="path30" />
      <path
         d="m 540.613,24.6172 c -0.468,-0.1719 -0.8,-0.1055 -1.093,0.2773 l -29.747,34.2774 c -0.269,0.3125 -0.132,0.7226 0.332,0.8984 l 11.016,4.1992 c 0.473,0.1758 0.805,0.0938 1.098,-0.2773 l 17.578,-21.6758 0.191,0.0781 -1.597,27.7696 c -0.039,0.4804 0.172,0.7656 0.64,0.9414 l 10.942,4.1758 c 0.449,0.1796 0.781,-0.0547 0.781,-0.4649 l 0.625,-45.3906 c 0.039,-0.4883 -0.156,-0.7656 -0.625,-0.9375 l -10.141,-3.8711"
         style="fill:#ffffff;fill-opacity:1;fill-rule:nonzero;stroke:none"
         id="path32" />
      <path
         d="m 565.398,82.2188 c -0.195,0.332 -0.078,0.7031 0.293,0.9179 l 27.754,15.8008 c 0.371,0.2148 0.766,0.1367 0.957,-0.207 l 4.145,-7.2383 c 0.176,-0.3399 0.058,-0.7031 -0.317,-0.918 l -17.031,-9.6836 c -0.254,-0.1484 -0.308,-0.332 -0.176,-0.5586 l 3.286,-5.7695 c 0.132,-0.2383 0.332,-0.2773 0.562,-0.1367 l 13.984,7.957 c 0.391,0.207 0.762,0.1289 0.958,-0.2031 l 4.027,-7.0703 c 0.191,-0.3321 0.078,-0.7031 -0.293,-0.918 l -13.984,-7.9609 c -0.254,-0.1446 -0.317,-0.3242 -0.176,-0.5547 l 3.496,-6.1133 c 0.137,-0.2148 0.308,-0.2539 0.562,-0.1172 l 17.035,9.6875 c 0.372,0.2149 0.743,0.1367 0.938,-0.1953 l 4.141,-7.2461 c 0.195,-0.332 0.078,-0.7031 -0.293,-0.918 L 587.488,44.9727 c -0.386,-0.2149 -0.758,-0.1289 -0.957,0.2148 l -21.133,37.0313"
         style="fill:#ffffff;fill-opacity:1;fill-rule:nonzero;stroke:none"
         id="path34" />
      <path
         d="m 638.176,114.113 c -1.758,2.227 -4.571,2.301 -7.406,0.078 l -5.29,-4.203 c -0.214,-0.172 -0.253,-0.359 -0.097,-0.562 l 5.293,-6.699 c 0.152,-0.207 0.347,-0.215 0.562,-0.039 l 5.317,4.199 c 2.808,2.226 3.394,4.976 1.621,7.226 z m 18.902,-22.9138 c -0.508,-0.3984 -0.801,-0.3867 -1.25,-0.1523 l -15.098,7.1758 -3.667,-2.8985 c -0.215,-0.1758 -0.254,-0.3633 -0.098,-0.5664 l 9.058,-11.4687 c 0.239,-0.3086 0.176,-0.6914 -0.156,-0.9532 l -8.804,-6.9531 c -0.333,-0.2734 -0.723,-0.2539 -0.958,0.0586 l -26.449,33.4966 c -0.254,0.308 -0.176,0.679 0.157,0.957 l 15.609,12.343 c 8.808,6.961 17.461,6.309 22.598,-0.187 3.418,-4.324 3.921,-9.602 1.304,-14.641 l 17.422,-7.5741 c 0.41,-0.1796 0.473,-0.6054 0.078,-0.9218 l -9.746,-7.7149"
         style="fill:#ffffff;fill-opacity:1;fill-rule:nonzero;stroke:none"
         id="path36" />
      <path
         d="m 679.441,118.074 c -0.425,-0.094 -0.796,0.16 -0.796,0.649 l -0.649,9.39 c -0.035,0.434 0.258,0.754 0.625,0.785 3.715,0.575 8.359,2.547 11.66,6.122 3.071,3.32 3.442,6.203 1.645,7.871 -1.367,1.269 -3.203,1.113 -6.899,-2.032 l -1.992,-1.668 c -8.14,-6.828 -15.176,-8.136 -21.211,-2.57 -6.011,5.586 -5.23,14.524 2.27,22.637 4.59,4.941 10.254,8.312 15.41,9.512 0.43,0.078 0.723,-0.079 0.816,-0.555 l 1.504,-8.742 c 0.039,-0.43 -0.152,-0.743 -0.547,-0.868 -3.843,-1.125 -7.246,-2.968 -9.859,-5.824 -2.441,-2.625 -2.523,-5 -0.957,-6.453 1.426,-1.308 3.394,-0.976 6.949,2.09 l 1.977,1.68 c 8.258,6.925 15.093,8.027 21.211,2.363 5.996,-5.527 5.664,-14.629 -3.203,-24.207 -5.415,-5.859 -13.086,-9.688 -17.954,-10.18"
         style="fill:#ffffff;fill-opacity:1;fill-rule:nonzero;stroke:none"
         id="path38" />
      <path
         d="m 689.441,187.473 c -0.308,0.222 -0.347,0.613 -0.093,0.965 l 6.543,9.093 c 0.254,0.352 0.625,0.438 0.933,0.203 l 34.668,-24.902 c 0.317,-0.223 0.371,-0.605 0.102,-0.957 l -6.528,-9.102 c -0.269,-0.351 -0.64,-0.437 -0.957,-0.214 l -34.668,24.914"
         style="fill:#ffffff;fill-opacity:1;fill-rule:nonzero;stroke:none"
         id="path40" />
      <path
         d="m 751.238,202.91 -0.117,-0.195 c -0.058,-0.117 -0.152,-0.156 -0.328,-0.215 -0.102,-0.039 -0.195,-0.066 -0.297,0 l -0.176,0.098 -28.726,15.898 c -0.176,0.098 -0.356,0.031 -0.508,-0.137 l -0.039,-0.058 -5.805,-10.508 -0.097,-0.184 c -0.079,-0.129 -0.172,-0.168 -0.25,-0.187 l -0.082,-0.039 c 0,0 -0.079,0.027 -0.094,-0.028 -0.156,0 -0.278,0.067 -0.395,0.125 l -7.676,4.258 c -0.269,0.157 -0.41,0.469 -0.332,0.742 l 0.122,0.196 18.125,32.851 c 0.093,0.196 0.21,0.293 0.386,0.352 0,0 0.102,0.027 0.156,0 0.098,0.039 0.239,0.039 0.356,-0.027 l 7.691,-4.258 c 0.176,-0.09 0.293,-0.254 0.332,-0.442 0.039,-0.097 0.024,-0.254 -0.039,-0.371 l -0.078,-0.136 -5.801,-10.508 c -0.054,-0.125 -0.093,-0.188 -0.078,-0.282 -0.039,-0.058 0.024,-0.089 0.063,-0.187 l 0.152,-0.098 28.735,-15.898 0.171,-0.098 c 0.137,-0.156 0.161,-0.254 0.161,-0.508 0.015,-0.086 -0.04,-0.214 -0.122,-0.351 l -5.41,-9.805"
         style="fill:#ffffff;fill-opacity:1;fill-rule:nonzero;stroke:none"
         id="path42" />
      <path
         d="m 777.063,257.422 c -0.137,-0.391 -0.469,-0.574 -0.84,-0.449 l -15.356,5.644 -29.683,-4.844 c -0.43,0 -0.649,0.313 -0.469,0.782 l 3.863,10.586 c 0.18,0.468 0.488,0.742 0.996,0.859 l 16.899,2.52 0.078,0.195 -11.274,12.734 c -0.371,0.352 -0.386,0.821 -0.23,1.297 l 3.824,10.383 c 0.195,0.547 0.551,0.566 0.859,0.293 l 19.512,-22.938 15.332,-5.636 c 0.356,-0.137 0.512,-0.489 0.356,-0.899 l -3.867,-10.527"
         style="fill:#ffffff;fill-opacity:1;fill-rule:nonzero;stroke:none"
         id="path44" />
      <path
         d="m 40.4883,383.176 -0.0586,12.844 c -0.0274,6.96 -3.3984,10.601 -8.5664,10.578 -5.1641,-0.024 -8.582,-3.707 -8.543,-10.66 l 0.0469,-12.852 c 0,-0.281 0.1406,-0.43 0.3945,-0.422 l 16.336,0.078 c 0.2617,0 0.3906,0.149 0.3906,0.434 z m -20.6524,12.383 c -0.0312,6.597 -3.4101,10.175 -8.1836,10.148 -5.03902,-0.019 -8.18355,-3.633 -8.15621,-10.234 l 0.04688,-12.481 c 0,-0.281 0.13672,-0.429 0.39453,-0.429 l 15.5547,0.074 c 0.2656,0.011 0.3906,0.152 0.3906,0.437 z M 0.722656,378.457 c -0.390625,0 -0.6523435,0.281 -0.644531,0.715 L 0,395.531 c -0.0390625,9.258 4.39453,14.235 11.3086,14.27 5.3594,0.023 8.6719,-2.977 9.9102,-7.492 h 0.1367 c 0.625,3.593 4.0351,8.347 10.4218,8.379 7.5586,0.039 12.1094,-5.325 12.1368,-14.942 l 0.0703,-16.359 c 0.0078,-0.442 -0.2539,-0.715 -0.6367,-0.715 L 0.722656,378.457"
         style="fill:#ffffff;fill-opacity:1;fill-rule:nonzero;stroke:none"
         id="path46" />
      <path
         d="m 17.6289,461.555 c -5.4414,0.75 -9.12109,-2.653 -10.08984,-9.551 L 5.8125,439.629 c -0.04297,-0.281 0.06641,-0.445 0.32031,-0.477 l 16.39849,-2.265 c 0.25,-0.035 0.3984,0.086 0.4375,0.371 l 1.7382,12.371 c 0.9571,6.894 -1.5703,11.16 -7.0781,11.926 z m 31.6563,-3.297 c -0.0586,-0.43 -0.211,-0.625 -0.6914,-0.778 l -20.3204,-7.546 -0.1015,-0.715 -1.7383,-12.442 c -0.0469,-0.289 0.0586,-0.445 0.3242,-0.484 l 18.4375,-2.555 c 0.3828,-0.05 0.6055,-0.371 0.5469,-0.793 l -0.3711,-2.632 c -0.0586,-0.43 -0.3516,-0.68 -0.7422,-0.625 l -42.26562,5.847 c -0.38281,0.055 -0.59375,0.383 -0.53906,0.809 l 2.26953,16.207 c 1.27734,9.105 6.67965,14.086 14.10155,13.054 6.0156,-0.835 9.6641,-5.109 10.1445,-11.48 l 20.754,7.859 c 0.4179,0.227 0.6992,-0.031 0.6406,-0.453 l -0.4492,-3.273"
         style="fill:#ffffff;fill-opacity:1;fill-rule:nonzero;stroke:none"
         id="path48" />
      <path
         d="m 12.4883,492.902 c -0.3711,0.106 -0.5352,0.453 -0.418,0.868 l 7.707,26.871 c 0.1172,0.414 0.4454,0.621 0.8282,0.511 l 2.1093,-0.605 c 0.3633,-0.106 0.5391,-0.457 0.4219,-0.875 l -6.664,-23.203 c -0.0743,-0.274 0.0117,-0.449 0.2539,-0.52 l 15.0312,-4.308 c 0.2539,-0.067 0.4102,0.031 0.5,0.308 l 5.7188,19.957 c 0.1172,0.414 0.4492,0.617 0.8203,0.512 l 2.1094,-0.605 c 0.375,-0.11 0.5507,-0.446 0.4335,-0.86 l -5.7343,-19.961 c -0.0782,-0.277 0.0078,-0.457 0.2539,-0.523 l 15.6562,-4.489 c 0.2422,-0.074 0.4063,0.036 0.4883,0.309 l 6.6563,23.203 c 0.1211,0.414 0.4492,0.621 0.8203,0.512 l 2.1133,-0.606 c 0.371,-0.105 0.5351,-0.453 0.4179,-0.863 l -7.707,-26.863 c -0.1133,-0.418 -0.4492,-0.621 -0.8203,-0.516 l -40.9961,11.746"
         style="fill:#ffffff;fill-opacity:1;fill-rule:nonzero;stroke:none"
         id="path50" />
      <path
         d="M 64.4219,554.219 39.7188,555.195 39.6289,555 56.9531,537.281 Z m -30.4492,1.094 c -0.3008,0.285 -0.418,0.648 -0.2422,1.046 l 1.0468,2.364 c 0.1915,0.457 0.5235,0.554 0.9375,0.523 l 45.8282,-1.789 c 0.4101,-0.019 0.5547,-0.324 0.3906,-0.719 l -1.1328,-2.558 c -0.2031,-0.457 -0.4414,-0.668 -0.9649,-0.59 l -11.6054,0.433 -8.5742,-19.421 8.125,-8.313 c 0.3906,-0.406 0.3906,-0.719 0.2148,-1.113 l -1.1211,-2.559 c -0.1758,-0.39 -0.4961,-0.484 -0.8008,-0.195 l -32.1015,32.891"
         style="fill:#ffffff;fill-opacity:1;fill-rule:nonzero;stroke:none"
         id="path52" />
      <path
         d="m 53.6211,594.867 c -0.332,0.203 -0.3984,0.586 -0.1641,0.953 l 1.3946,2.25 c 0.2382,0.364 0.6093,0.477 0.9375,0.27 l 21.4882,-13.379 -9.2304,33.16 c -0.0977,0.567 -0.1172,0.91 0.1484,1.344 l 1.7852,2.859 c 0.2343,0.367 0.6758,0.348 0.7617,-0.125 l 5.918,-21.883 30.8008,0.457 c 0.488,0.04 0.644,-0.312 0.422,-0.679 l -1.723,-2.739 c -0.262,-0.425 -0.574,-0.574 -1.062,-0.613 l -27.3636,-0.304 3.8164,-14.137 10.4219,-6.488 c 0.332,-0.208 0.3984,-0.583 0.1757,-0.95 l -1.4179,-2.254 c -0.2227,-0.367 -0.5938,-0.476 -0.9258,-0.265 l -36.1836,22.523"
         style="fill:#ffffff;fill-opacity:1;fill-rule:nonzero;stroke:none"
         id="path54" />
      <path
         d="m 84.6992,640.863 c -0.3047,0.246 -0.3359,0.629 -0.0703,0.969 l 1.6406,2.094 c 0.2657,0.344 0.6446,0.41 0.9493,0.172 L 120.84,617.836 c 0.305,-0.242 0.332,-0.617 0.066,-0.961 l -1.636,-2.094 c -0.266,-0.343 -0.649,-0.406 -0.957,-0.172 l -33.6138,26.254"
         style="fill:#ffffff;fill-opacity:1;fill-rule:nonzero;stroke:none"
         id="path56" />
      <path
         d="m 104.16,664.586 c -0.281,0.262 -0.265,0.648 0.039,0.961 l 1.864,1.894 c 0.351,0.356 0.746,0.571 1.32,0.422 l 42.82,-7.898 0.156,0.156 -25.769,25.25 c -0.281,0.27 -0.266,0.656 0.039,0.961 l 1.863,1.895 c 0.293,0.312 0.688,0.332 0.957,0.066 l 30.442,-29.816 c 0.273,-0.274 0.254,-0.653 -0.047,-0.965 l -1.953,-2 c -0.305,-0.309 -0.703,-0.528 -1.321,-0.418 l -42.722,8.094 -0.207,-0.204 25.82,-25.296 c 0.273,-0.278 0.266,-0.661 -0.039,-0.969 l -1.863,-1.895 c -0.305,-0.301 -0.696,-0.332 -0.969,-0.058 l -30.43,29.82"
         style="fill:#ffffff;fill-opacity:1;fill-rule:nonzero;stroke:none"
         id="path58" />
      <path
         d="m 159.336,688.223 c -4.609,6.086 -5.906,8.761 -6.609,10.988 -2.063,6.641 0.378,12.703 6.726,17.519 6.336,4.817 12.434,4.973 17.102,2.743 0.308,-0.164 0.508,-0.43 0.269,-0.844 l -1.199,-2.211 c -0.203,-0.32 -0.535,-0.484 -0.898,-0.359 -4.368,1.718 -8.594,1.355 -13.235,-2.157 -4.793,-3.648 -6.492,-8.179 -5,-13.136 0.512,-1.727 1.738,-4.2 6.153,-10.024 4.418,-5.824 6.457,-7.691 7.98,-8.637 4.355,-2.785 9.18,-2.375 13.984,1.27 4.688,3.559 6.543,8.129 5.086,13.031 -0.496,1.731 -1.621,4.043 -4.16,7.399 -0.152,0.203 -0.347,0.218 -0.586,0.047 l -8.797,-6.684 c -0.351,-0.254 -0.73,-0.223 -0.964,0.09 l -1.293,1.691 c -0.235,0.313 -0.165,0.692 0.187,0.953 l 11.836,8.985 c 0.344,0.258 0.73,0.226 0.969,-0.082 l 1.597,-2.114 c 2.649,-3.507 4.219,-6.539 4.868,-8.566 2.109,-6.602 -0.332,-12.758 -6.575,-17.488 -6.347,-4.821 -12.839,-5.524 -18.672,-1.746 -1.953,1.277 -4.167,3.25 -8.769,9.332"
         style="fill:#ffffff;fill-opacity:1;fill-rule:nonzero;stroke:none"
         id="path60" />
      <path
         d="m 220.93,754.02 c -0.16,0.355 -0.012,0.707 0.379,0.886 l 2.421,1.106 c 0.458,0.211 0.899,0.273 1.375,-0.082 l 37.161,-22.746 0.195,0.089 -14.988,32.864 c -0.16,0.347 0,0.711 0.386,0.886 l 2.414,1.098 c 0.403,0.18 0.762,0.063 0.926,-0.289 l 17.688,-38.793 c 0.168,-0.355 0.008,-0.707 -0.379,-0.883 l -2.551,-1.168 c -0.391,-0.179 -0.84,-0.238 -1.379,0.082 l -36.98,22.895 -0.262,-0.121 15.008,-32.914 c 0.168,-0.352 0.011,-0.703 -0.379,-0.891 l -2.426,-1.101 c -0.391,-0.176 -0.762,-0.059 -0.918,0.292 l -17.691,38.79"
         style="fill:#ffffff;fill-opacity:1;fill-rule:nonzero;stroke:none"
         id="path62" />
      <path
         d="m 277.219,777.27 c -0.11,0.371 0.094,0.703 0.515,0.828 l 26.829,7.855 c 0.41,0.117 0.757,-0.051 0.867,-0.422 l 0.617,-2.109 c 0.105,-0.371 -0.102,-0.703 -0.512,-0.824 l -23.172,-6.782 c -0.273,-0.082 -0.383,-0.25 -0.312,-0.5 l 4.387,-15.003 c 0.066,-0.25 0.234,-0.336 0.515,-0.254 l 19.934,5.836 c 0.41,0.121 0.758,-0.043 0.867,-0.422 l 0.625,-2.102 c 0.105,-0.371 -0.109,-0.699 -0.52,-0.828 l -19.929,-5.828 c -0.285,-0.09 -0.379,-0.25 -0.301,-0.5 l 4.551,-15.633 c 0.078,-0.25 0.242,-0.332 0.523,-0.25 l 23.176,6.781 c 0.41,0.125 0.762,-0.043 0.867,-0.418 l 0.617,-2.105 c 0.11,-0.371 -0.097,-0.699 -0.508,-0.824 L 290.02,735.91 c -0.411,-0.117 -0.75,0.047 -0.86,0.418 l -11.941,40.942"
         style="fill:#ffffff;fill-opacity:1;fill-rule:nonzero;stroke:none"
         id="path64" />
      <path
         d="m 369.836,752.504 c -0.434,-0.059 -0.664,0.109 -0.871,0.543 l -15.828,34.289 -0.149,-0.027 -6.894,-37.149 c -0.086,-0.469 -0.281,-0.687 -0.703,-0.742 l -2.278,-0.285 c -0.425,-0.051 -0.75,0.168 -0.945,0.531 l -16.797,40.805 c -0.195,0.433 -0.019,0.719 0.481,0.781 l 2.566,0.328 c 0.566,0.074 0.879,-0.09 1.008,-0.527 l 14.082,-34.703 0.137,0.019 6.66,37.317 c 0.078,0.468 0.269,0.687 0.769,0.75 l 2.141,0.269 c 0.496,0.063 0.738,-0.101 0.933,-0.531 l 15.864,-34.481 0.133,0.02 4.816,37.082 c 0.066,0.531 0.273,0.687 0.84,0.758 l 2.566,0.324 c 0.512,0.059 0.754,-0.164 0.664,-0.633 l -6.148,-43.703 c -0.024,-0.394 -0.278,-0.684 -0.703,-0.742 l -2.344,-0.293"
         style="fill:#ffffff;fill-opacity:1;fill-rule:nonzero;stroke:none"
         id="path66" />
      <path
         d="m 426.328,775.512 c 0.789,7.586 1.668,10.422 2.676,12.519 3.047,6.242 8.965,9 16.894,8.164 7.942,-0.828 12.5,-4.875 14.375,-9.691 0.118,-0.336 0.079,-0.652 -0.371,-0.805 l -2.39,-0.785 c -0.371,-0.094 -0.727,0.008 -0.903,0.356 -2.007,4.234 -5.347,6.859 -11.14,7.468 -5.996,0.625 -10.352,-1.515 -12.637,-6.144 -0.82,-1.61 -1.602,-4.254 -2.363,-11.52 -0.762,-7.25 -0.535,-10.004 -0.071,-11.742 1.282,-5.012 5.09,-8.008 11.094,-8.633 5.863,-0.617 10.332,1.446 12.617,6.016 0.825,1.601 1.582,4.051 2.024,8.23 0.027,0.258 -0.11,0.407 -0.391,0.43 l -11.008,1.156 c -0.425,0.039 -0.691,0.328 -0.64,0.719 l 0.215,2.121 c 0.039,0.383 0.347,0.609 0.781,0.57 l 14.793,-1.558 c 0.43,-0.043 0.691,-0.332 0.652,-0.711 l -0.281,-2.637 c -0.457,-4.375 -1.375,-7.656 -2.293,-9.57 -2.973,-6.25 -8.977,-9.063 -16.762,-8.25 -7.929,0.836 -13.152,4.762 -14.844,11.496 -0.554,2.266 -0.82,5.223 -0.027,12.801"
         style="fill:#ffffff;fill-opacity:1;fill-rule:nonzero;stroke:none"
         id="path68" />
      <path
         d="m 511.926,770.469 c 1.344,5.324 -1.621,9.351 -8.371,11.078 l -12.11,3.098 c -0.285,0.074 -0.449,-0.016 -0.515,-0.27 l -4.082,-16.035 c -0.063,-0.254 0.039,-0.41 0.32,-0.485 l 12.109,-3.093 c 6.746,-1.731 11.27,0.32 12.649,5.707 z m -6.809,-31.094 c -0.422,0.113 -0.586,0.289 -0.683,0.781 l -5.254,21.02 -0.696,0.183 -12.175,3.118 c -0.286,0.074 -0.45,-0.02 -0.516,-0.266 l -4.594,-18.043 c -0.094,-0.375 -0.437,-0.559 -0.847,-0.449 l -2.579,0.652 c -0.418,0.109 -0.632,0.426 -0.539,0.801 l 10.532,41.355 c 0.086,0.375 0.425,0.551 0.847,0.442 l 15.867,-4.055 c 8.911,-2.277 13.262,-8.195 11.411,-15.465 -1.496,-5.883 -6.164,-9.039 -12.539,-8.801 l 5.488,-21.488 c 0.183,-0.449 -0.102,-0.707 -0.52,-0.605 l -3.203,0.82"
         style="fill:#ffffff;fill-opacity:1;fill-rule:nonzero;stroke:none"
         id="path70" />
      <path
         d="m 564.641,753.008 c 0.203,5.168 -2.461,9.062 -8.032,11.383 -5.632,2.343 -10.281,1.468 -13.796,-2.317 -1.27,-1.359 -2.879,-3.761 -5.606,-10.324 -2.734,-6.559 -3.289,-9.406 -3.359,-11.262 -0.203,-5.164 2.461,-9.066 8.093,-11.406 5.579,-2.32 10.215,-1.445 13.723,2.336 1.262,1.359 2.891,3.77 5.613,10.332 2.727,6.563 3.293,9.398 3.364,11.258 z m -34.836,-11.957 c 0.097,2.469 0.656,5.32 3.547,12.301 2.91,6.976 4.531,9.375 6.218,11.195 4.66,5.055 11.016,6.121 18.379,3.066 7.285,-3.039 11.028,-8.293 10.735,-15.16 -0.098,-2.488 -0.657,-5.328 -3.555,-12.305 -2.895,-6.98 -4.524,-9.382 -6.203,-11.199 -4.668,-5.051 -11.028,-6.121 -18.321,-3.09 -7.351,3.063 -11.085,8.317 -10.8,15.192"
         style="fill:#ffffff;fill-opacity:1;fill-rule:nonzero;stroke:none"
         id="path72" />
      <path
         d="m 584.602,722.27 c -4.25,-7.09 -2.317,-12.922 4.336,-16.915 6.699,-4.023 12.75,-2.98 17,4.102 l 14.484,24.16 c 0.191,0.332 0.574,0.406 0.933,0.184 l 2.29,-1.363 c 0.359,-0.227 0.476,-0.59 0.281,-0.922 L 609.48,707.414 c -5.503,-9.199 -13.667,-10.258 -22.339,-5.047 -8.606,5.168 -11.528,12.863 -6.02,22.063 l 14.445,24.097 c 0.196,0.336 0.579,0.411 0.95,0.184 l 2.273,-1.363 c 0.371,-0.219 0.488,-0.594 0.281,-0.922 L 584.602,722.27"
         style="fill:#ffffff;fill-opacity:1;fill-rule:nonzero;stroke:none"
         id="path74" />
      <path
         d="m 646.238,715.816 c 0.246,0.297 0.637,0.313 0.969,0.043 l 2.063,-1.699 c 0.378,-0.312 0.632,-0.691 0.527,-1.273 l -4.152,-43.399 0.156,-0.136 22.949,27.906 c 0.254,0.297 0.637,0.312 0.969,0.043 l 2.051,-1.696 c 0.332,-0.273 0.386,-0.66 0.144,-0.957 l -27.09,-32.945 c -0.254,-0.297 -0.636,-0.312 -0.969,-0.039 l -2.167,1.777 c -0.321,0.274 -0.575,0.653 -0.516,1.282 l 4.348,43.316 -0.215,0.18 -23,-27.953 c -0.242,-0.305 -0.633,-0.321 -0.965,-0.051 l -2.055,1.695 c -0.332,0.274 -0.39,0.66 -0.137,0.957 l 27.09,32.949"
         style="fill:#ffffff;fill-opacity:1;fill-rule:nonzero;stroke:none"
         id="path76" />
      <path
         d="m 665.281,645.445 7.317,-8.101 c 4.238,-4.696 8.515,-6.446 13.132,-4.606 2.114,0.84 4.036,2.09 9.551,7.078 5.539,4.981 6.977,6.766 8.032,8.774 2.3,4.402 0.996,8.836 -3.235,13.535 l -7.324,8.105 c -0.188,0.219 -0.383,0.235 -0.574,0.059 l -26.887,-24.262 c -0.203,-0.175 -0.195,-0.367 -0.012,-0.582 z m 26.567,30.051 c 0.269,0.262 0.672,0.223 0.957,-0.101 l 10.254,-11.356 c 5.437,-6.031 6.836,-11.926 3.804,-17.555 -1.289,-2.429 -2.832,-4.394 -8.777,-9.765 -5.969,-5.375 -8.074,-6.703 -10.625,-7.739 -5.906,-2.425 -11.633,-0.433 -17.07,5.59 l -10.254,11.364 c -0.282,0.316 -0.293,0.707 0,0.964 l 31.711,28.598"
         style="fill:#ffffff;fill-opacity:1;fill-rule:nonzero;stroke:none"
         id="path78" />
      <path
         d="m 589.504,270.703 c -10.941,4.902 -22.363,8.985 -40.957,20.313 -52.246,31.855 -68.149,79.265 -38.774,161.98 17.012,47.895 25.176,88.277 20.981,131.848 -0.586,0.398 -1.191,0.765 -1.777,1.152 -2.754,-54.715 -22.93,-88.738 -59.067,-146.328 -76.566,-122.012 1.176,-211.426 38.11,-239.238 32.554,16.418 60.543,40.656 81.484,70.273"
         style="fill:#ffffff;fill-opacity:1;fill-rule:nonzero;stroke:none"
         id="path80" />
      <path
         d="m 434.441,444.125 c 59.043,69.488 78.227,101.531 82.207,149.336 -0.625,0.348 -1.25,0.738 -1.89,1.086 -13.672,-57.203 -47.973,-87.52 -138.356,-147.723 -97.375,-64.832 -92.988,-176.277 -68.195,-245.664 30.195,-15.496 64.367,-24.285 100.609,-24.285 7.739,0 15.372,0.402 22.895,1.172 -70.301,106.66 -65.406,185.867 2.73,266.078"
         style="fill:#ffffff;fill-opacity:1;fill-rule:nonzero;stroke:none"
         id="path82" />
      <path
         d="m 398.344,495.402 c 65.219,28.289 96.136,71.262 105.062,104.914 -0.562,0.282 -1.148,0.536 -1.734,0.797 -28.379,-59.379 -85.039,-69.277 -181.922,-82.261 -57.43,-7.696 -102.109,-40.606 -129.062,-81.34 -2.168,-12.438 -3.34,-25.215 -3.34,-38.274 0,-52.929 18.457,-101.523 49.218,-139.707 -2.734,166.285 83.633,201.977 161.778,235.871"
         style="fill:#ffffff;fill-opacity:1;fill-rule:nonzero;stroke:none"
         id="path84" />
    </g>
  </g>
</svg>
